<svg width="100%" height="100%" viewBox="2 6 41 21.5" fill="none" xmlns="http://www.w3.org/2000/svg">
  <path d="M 2 24.5 C 10 22.5, 20 27.5, 43 21" stroke="#D8BC4A" stroke-width="1.8" stroke-linecap="round" fill="none" />
  <g fill="#D8BC4A">
    <path d="M 30 25.2 Q 31.8 19, 34 14" stroke="#D8BC4A" stroke-width="1.4" stroke-linecap="round" fill="none" />
    <path d="M 34 14 C 33 8, 37 7, 39 9 C 37.5 11.5, 35.8 13.2, 34 14 Z" />
    <path d="M 32.5 18 C 37 16, 39 17.5, 40 19.5 C 37.5 21, 34.5 19.5, 32.5 18 Z" />
    <path d="M 31 21.5 C 28 18, 28.2 14.5, 30 13 C 32 15, 32.2 19, 31 21.5 Z" />
  </g>
  <g stroke="currentColor" stroke-width="2.2" stroke-linecap="round" stroke-linejoin="round" fill="none">
    <path d="M 5 15 L 16 6 L 27 15" />
    <path d="M 8 12.55 V 23.5" />
    <path d="M 24 12.55 V 25.2" />
  </g>
  <g fill="#D8BC4A">
    <rect x="12.2" y="13.7" width="3.2" height="3.2" rx="0.7" />
    <rect x="16.6" y="13.7" width="3.2" height="3.2" rx="0.7" />
    <rect x="12.2" y="18.1" width="3.2" height="3.2" rx="0.7" />
    <rect x="16.6" y="18.1" width="3.2" height="3.2" rx="0.7" />
  </g>
</svg>